<mxfile host="app.diagrams.net" modified="2021-11-21T06:56:02.347Z" agent="5.0 (Windows NT 10.0; WOW64) AppleWebKit/537.36 (KHTML, like Gecko) Chrome/96.0.4664.45 Safari/537.36" etag="D9tHlFLAG4zSprCWVW9Y" version="15.8.2" type="github">
  <diagram id="C5RBs43oDa-KdzZeNtuy" name="Page-1">
    <mxGraphModel dx="1695" dy="450" grid="1" gridSize="10" guides="1" tooltips="1" connect="1" arrows="1" fold="1" page="1" pageScale="1" pageWidth="827" pageHeight="1169" math="0" shadow="0">
      <root>
        <mxCell id="WIyWlLk6GJQsqaUBKTNV-0" />
        <mxCell id="WIyWlLk6GJQsqaUBKTNV-1" parent="WIyWlLk6GJQsqaUBKTNV-0" />
        <mxCell id="TJMRBGX7hln0od3wYVoC-31" style="edgeStyle=orthogonalEdgeStyle;rounded=0;orthogonalLoop=1;jettySize=auto;html=1;entryX=0.5;entryY=0;entryDx=0;entryDy=0;" edge="1" parent="WIyWlLk6GJQsqaUBKTNV-1" source="TJMRBGX7hln0od3wYVoC-20" target="TJMRBGX7hln0od3wYVoC-23">
          <mxGeometry relative="1" as="geometry" />
        </mxCell>
        <mxCell id="TJMRBGX7hln0od3wYVoC-20" value="&lt;h3&gt;Questions&lt;/h3&gt;" style="rounded=0;whiteSpace=wrap;html=1;fillColor=#f8cecc;strokeColor=#b85450;" vertex="1" parent="WIyWlLk6GJQsqaUBKTNV-1">
          <mxGeometry x="-120" y="100" width="120" height="40" as="geometry" />
        </mxCell>
        <mxCell id="TJMRBGX7hln0od3wYVoC-26" style="edgeStyle=orthogonalEdgeStyle;rounded=0;orthogonalLoop=1;jettySize=auto;html=1;" edge="1" parent="WIyWlLk6GJQsqaUBKTNV-1" source="TJMRBGX7hln0od3wYVoC-21">
          <mxGeometry relative="1" as="geometry">
            <mxPoint x="350" y="120" as="targetPoint" />
          </mxGeometry>
        </mxCell>
        <mxCell id="TJMRBGX7hln0od3wYVoC-27" style="edgeStyle=orthogonalEdgeStyle;rounded=0;orthogonalLoop=1;jettySize=auto;html=1;entryX=1;entryY=0.5;entryDx=0;entryDy=0;" edge="1" parent="WIyWlLk6GJQsqaUBKTNV-1" source="TJMRBGX7hln0od3wYVoC-21" target="TJMRBGX7hln0od3wYVoC-20">
          <mxGeometry relative="1" as="geometry" />
        </mxCell>
        <mxCell id="TJMRBGX7hln0od3wYVoC-21" value="&lt;h3&gt;Quiz game&lt;/h3&gt;" style="rounded=0;whiteSpace=wrap;html=1;fillColor=#f8cecc;strokeColor=#b85450;" vertex="1" parent="WIyWlLk6GJQsqaUBKTNV-1">
          <mxGeometry x="150" y="100" width="120" height="40" as="geometry" />
        </mxCell>
        <mxCell id="TJMRBGX7hln0od3wYVoC-22" value="&lt;h3&gt;Level of the author&amp;nbsp;&amp;nbsp;&lt;/h3&gt;" style="rounded=0;whiteSpace=wrap;html=1;fillColor=#f8cecc;strokeColor=#b85450;" vertex="1" parent="WIyWlLk6GJQsqaUBKTNV-1">
          <mxGeometry x="354" y="100" width="120" height="40" as="geometry" />
        </mxCell>
        <mxCell id="TJMRBGX7hln0od3wYVoC-30" style="edgeStyle=orthogonalEdgeStyle;rounded=0;orthogonalLoop=1;jettySize=auto;html=1;entryX=0;entryY=0.5;entryDx=0;entryDy=0;" edge="1" parent="WIyWlLk6GJQsqaUBKTNV-1" source="TJMRBGX7hln0od3wYVoC-23" target="TJMRBGX7hln0od3wYVoC-24">
          <mxGeometry relative="1" as="geometry" />
        </mxCell>
        <mxCell id="TJMRBGX7hln0od3wYVoC-23" value="&lt;h3&gt;Question&lt;/h3&gt;" style="rounded=0;whiteSpace=wrap;html=1;fillColor=#f8cecc;strokeColor=#b85450;" vertex="1" parent="WIyWlLk6GJQsqaUBKTNV-1">
          <mxGeometry x="-120" y="210" width="120" height="40" as="geometry" />
        </mxCell>
        <mxCell id="TJMRBGX7hln0od3wYVoC-33" style="edgeStyle=none;rounded=0;orthogonalLoop=1;jettySize=auto;html=1;entryX=1;entryY=1;entryDx=0;entryDy=0;" edge="1" parent="WIyWlLk6GJQsqaUBKTNV-1" source="TJMRBGX7hln0od3wYVoC-24" target="TJMRBGX7hln0od3wYVoC-20">
          <mxGeometry relative="1" as="geometry" />
        </mxCell>
        <mxCell id="TJMRBGX7hln0od3wYVoC-24" value="&lt;h3&gt;Answer&lt;/h3&gt;" style="rounded=0;whiteSpace=wrap;html=1;fillColor=#f8cecc;strokeColor=#b85450;" vertex="1" parent="WIyWlLk6GJQsqaUBKTNV-1">
          <mxGeometry x="150" y="210" width="120" height="40" as="geometry" />
        </mxCell>
        <mxCell id="TJMRBGX7hln0od3wYVoC-28" style="edgeStyle=orthogonalEdgeStyle;rounded=0;orthogonalLoop=1;jettySize=auto;html=1;entryX=0.5;entryY=1;entryDx=0;entryDy=0;" edge="1" parent="WIyWlLk6GJQsqaUBKTNV-1" source="TJMRBGX7hln0od3wYVoC-25" target="TJMRBGX7hln0od3wYVoC-22">
          <mxGeometry relative="1" as="geometry" />
        </mxCell>
        <mxCell id="TJMRBGX7hln0od3wYVoC-29" style="edgeStyle=orthogonalEdgeStyle;rounded=0;orthogonalLoop=1;jettySize=auto;html=1;entryX=1;entryY=0.5;entryDx=0;entryDy=0;" edge="1" parent="WIyWlLk6GJQsqaUBKTNV-1" source="TJMRBGX7hln0od3wYVoC-25" target="TJMRBGX7hln0od3wYVoC-24">
          <mxGeometry relative="1" as="geometry" />
        </mxCell>
        <mxCell id="TJMRBGX7hln0od3wYVoC-25" value="&lt;h3&gt;Author&lt;/h3&gt;" style="rounded=0;whiteSpace=wrap;html=1;fillColor=#f8cecc;strokeColor=#b85450;" vertex="1" parent="WIyWlLk6GJQsqaUBKTNV-1">
          <mxGeometry x="354" y="210" width="120" height="40" as="geometry" />
        </mxCell>
      </root>
    </mxGraphModel>
  </diagram>
</mxfile>
